<svg xmlns="http://www.w3.org/2000/svg" xmlns:xlink="http://www.w3.org/1999/xlink" version="1.1" x="0px" y="0px" viewBox="0 0 100 125" enable-background="new 0 0 100 100" xml:space="preserve"><path d="M67.822,50c0,0.908-0.736,1.644-1.644,1.644H51.644v14.534c0,0.908-0.736,1.644-1.644,1.644s-1.644-0.736-1.644-1.644  V51.644H33.822c-0.908,0-1.644-0.736-1.644-1.644s0.736-1.644,1.644-1.644h14.534V33.822c0-0.908,0.736-1.644,1.644-1.644  s1.644,0.736,1.644,1.644v14.534h14.534C67.086,48.356,67.822,49.092,67.822,50z M88.095,50c0,21.006-17.089,38.095-38.095,38.095  S11.905,71.006,11.905,50S28.994,11.905,50,11.905S88.095,28.994,88.095,50z M84.808,50c0-19.193-15.615-34.808-34.808-34.808  S15.192,30.807,15.192,50S30.807,84.808,50,84.808S84.808,69.193,84.808,50z"/><text x="0" y="115" fill="#000000" font-size="5px" font-weight="bold" font-family="'Helvetica Neue', Helvetica, Arial-Unicode, Arial, Sans-serif">Created by Gregor Črešnar</text><text x="0" y="120" fill="#000000" font-size="5px" font-weight="bold" font-family="'Helvetica Neue', Helvetica, Arial-Unicode, Arial, Sans-serif">from the Noun Project</text></svg>