<?xml version="1.0" encoding="utf-8"?>
<!-- Generator: Adobe Illustrator 16.0.4, SVG Export Plug-In . SVG Version: 6.00 Build 0)  -->
<!DOCTYPE svg PUBLIC "-//W3C//DTD SVG 1.1//EN" "http://www.w3.org/Graphics/SVG/1.1/DTD/svg11.dtd">
<svg version="1.1" id="Layer_1" xmlns="http://www.w3.org/2000/svg" xmlns:xlink="http://www.w3.org/1999/xlink" x="0px" y="0px"
	 width="1224px" height="1080px" viewBox="0 0 1224 1080" enable-background="new 0 0 1224 1080" xml:space="preserve">
<g>
	<path d="M76.82,154.286h1070.361c42.678,0,76.819-34.286,76.819-77.144C1224,34.286,1189.858,0,1147.181,0H76.82
		C34.142,0,0,34.286,0,77.142C0,120,34.142,154.286,76.82,154.286z"/>
	<path d="M1147.181,462.857H76.82C34.142,462.857,0,497.143,0,540c0,42.857,34.142,77.143,76.82,77.143h1070.361
		c42.678,0,76.819-34.285,76.819-77.143C1224,497.143,1189.858,462.857,1147.181,462.857z"/>
	<path d="M1147.181,925.714H76.82C34.142,925.714,0,960,0,1002.857S34.142,1080,76.82,1080h1070.361
		c42.678,0,76.819-34.286,76.819-77.143S1189.858,925.714,1147.181,925.714z"/>
</g>
</svg>
